# xmcd
#
# Track frame offsets:
#	150
#	17121
#	42038
#	61601
#	85962
#	104245
#	122511
#	138111
#	160404
#	174069
#	188094
#	211061
#	225585
#	241056
#	258888
#	269217
#	284313
#	306039
#
# Disc length: 4291 seconds
#
# Revision: 0
# Processed by: cddbd v1.5.2PL0 Copyright (c) Steve Scherf et al.
# Submitted via: dBpowerAMP V4.0
#
DISCID=eb10c112
DTITLE=Alèmayèhu Eshèté - Ethipiques 22 - More Vintage !
DYEAR=1900
DGENRE=Blues
TTITLE0=Nèy-nèy wèlèba
TTITLE1=Ambassèl (slow)
TTITLE2=Ambassèl (fast)
TTITLE3=Yeqer Aynèssa
TTITLE4=Tèmar Ledjé
TTITLE5=Men Tetchiyé medritu
TTITLE6=Tènagèri
TTITLE7=Yètentu Feqratchen
TTITLE8=Hodè fèra
TTITLE9=Abèba Mèssèlètch
TTITLE10=Gubelyè
TTITLE11=Tequr Gessela
TTITLE12=Yèmaynèga Lélit
TTITLE13=Yebèqanal
TTITLE14=Wètader Nègn
TTITLE15=Enat Yèendjèra enat
TTITLE16=Kènoru Lèbetchahé
TTITLE17=Tsegérèdayé
EXTD=
EXTT0=
EXTT1=
EXTT2=
EXTT3=
EXTT4=
EXTT5=
EXTT6=
EXTT7=
EXTT8=
EXTT9=
EXTT10=
EXTT11=
EXTT12=
EXTT13=
EXTT14=
EXTT15=
EXTT16=
EXTT17=
PLAYORDER=
